<?xml version="1.0" encoding="UTF-8" standalone="no"?>
<!-- Created with Inkscape (http://www.inkscape.org/) -->

<svg
   xmlns:dc="http://purl.org/dc/elements/1.1/"
   xmlns:cc="http://creativecommons.org/ns#"
   xmlns:rdf="http://www.w3.org/1999/02/22-rdf-syntax-ns#"
   xmlns:svg="http://www.w3.org/2000/svg"
   xmlns="http://www.w3.org/2000/svg"
   xmlns:sodipodi="http://sodipodi.sourceforge.net/DTD/sodipodi-0.dtd"
   xmlns:inkscape="http://www.inkscape.org/namespaces/inkscape"
   version="1.1"
   id="svg2012"
   width="100"
   height="100"
   viewBox="0 0 100 100"
   sodipodi:docname="lastfm-traced.svg"
   inkscape:version="0.92.2 2405546, 2018-03-11">
  <metadata
     id="metadata2018">
    <rdf:RDF>
      <cc:Work
         rdf:about="">
        <dc:format>image/svg+xml</dc:format>
        <dc:type
           rdf:resource="http://purl.org/dc/dcmitype/StillImage" />
        <dc:title></dc:title>
      </cc:Work>
    </rdf:RDF>
  </metadata>
  <defs
     id="defs2016" />
  <sodipodi:namedview
     pagecolor="#ffffff"
     bordercolor="#666666"
     borderopacity="1"
     objecttolerance="10"
     gridtolerance="10"
     guidetolerance="10"
     inkscape:pageopacity="0"
     inkscape:pageshadow="2"
     inkscape:window-width="1918"
     inkscape:window-height="1045"
     id="namedview2014"
     showgrid="false"
     inkscape:zoom="6.675088"
     inkscape:cx="56.935908"
     inkscape:cy="12.106309"
     inkscape:window-x="0"
     inkscape:window-y="16"
     inkscape:window-maximized="0"
     inkscape:current-layer="svg2012" />
  <path
     style="fill:none;stroke:#000000;stroke-width:0.30000001;stroke-miterlimit:4;stroke-dasharray:none;stroke-opacity:1"
     d="m 27.489446,73.861875 c -3.054112,-1.862041 -5.081264,-5.45685 -5.857695,-9.592555 -0.776432,-4.135705 -0.302142,-8.812307 1.646629,-12.83793 1.326168,-2.739497 2.925936,-4.625696 5.10372,-5.826439 2.177784,-1.200742 4.933583,-1.716029 8.571814,-1.713703 4.968236,0.0032 8.054354,0.588518 10.577224,3.034816 2.52287,2.446297 4.482493,6.753575 7.19774,14.200694 1.17784,3.230467 2.59982,5.464796 4.455745,6.844045 1.855925,1.379248 4.145796,1.903415 7.059419,1.713558 2.040948,-0.132992 3.179843,-0.270644 3.808501,-0.648388 0.628658,-0.377743 1.121606,-0.920673 1.121606,-2.014031 0,-1.059482 -0.572138,-1.80295 -1.420943,-2.399237 C 68.9044,64.026418 67.4044,63.502407 64.799622,62.73203 c -1.65,-0.487997 -3.346875,-1.17303 -4.751562,-1.883586 -1.404688,-0.710556 -2.517188,-1.446635 -2.998438,-2.036724 -1.38102,-1.69335 -1.944794,-3.836589 -1.734792,-5.985014 0.210003,-2.148424 1.193782,-4.302032 2.907869,-6.016119 1.298718,-1.298718 2.200877,-2.029487 3.461893,-2.435577 1.261015,-0.40609 2.880887,-0.4875 5.61503,-0.4875 2.734143,0 4.354015,0.08141 5.61503,0.4875 1.261016,0.40609 2.163175,1.136859 3.461893,2.435577 1.918556,1.918556 2.853632,3.348829 2.800666,4.379611 -0.05297,1.030782 -1.093975,1.662073 -3.127589,1.982668 -1.226733,0.193392 -2.135287,0.199987 -2.885091,-0.02888 -0.749803,-0.228865 -1.340855,-0.69319 -1.932584,-1.441638 -1.103039,-1.395177 -2.930703,-1.938092 -4.537833,-1.743301 -1.60713,0.194791 -2.993726,1.127287 -3.214629,2.682932 -0.169616,1.194473 -0.204548,1.823535 0.656026,2.372654 0.860574,0.549119 2.747391,0.612269 6.029063,1.893 4.201497,1.639709 6.750381,2.182074 8.123523,6.408133 0.893713,2.75054 1.132741,3.985049 -0.843576,8.327612 -0.665238,1.461728 -2.376872,2.819855 -3.693765,3.262629 -1.316893,0.442775 -3.145425,0.62487 -6.239263,0.799687 -6.322745,0.357269 -10.654797,-0.266469 -13.889257,-2.483335 -3.23446,-2.216866 -5.371328,-6.02686 -7.303706,-12.042104 -1.334191,-4.153166 -2.637342,-6.976352 -4.157949,-8.761247 -1.520608,-1.784895 -3.258673,-2.531498 -5.462693,-2.531498 -2.294416,0 -4.143983,0.949356 -5.419945,2.674034 -1.275963,1.724678 -1.978321,4.224678 -1.978321,7.325966 0,4.287424 1.26783,7.308164 3.422315,8.798541 2.154485,1.490376 5.195626,1.45039 8.742247,-0.383639 1.623094,-0.839334 2.673959,-1.155399 3.452859,-0.818211 0.7789,0.337189 1.285836,1.327632 1.82107,3.101315 0.265688,0.880446 0.282295,1.507108 -0.06807,2.069078 -0.350362,0.561969 -1.067692,1.059246 -2.26988,1.680922 -2.164523,1.119319 -5.377939,1.619288 -8.557357,1.530238 -3.179418,-0.08905 -6.324837,-0.76712 -8.353364,-2.003879 z"
     id="path2024"
     inkscape:connector-curvature="0"
     sodipodi:nodetypes="sssscssssssssssssssssssssssssssssssssssssssssss" />
</svg>
